<svg width="1512" height="684" viewBox="0 0 1512 684" fill="none" xmlns="http://www.w3.org/2000/svg">
<path d="M-60.5 682.001C71.3333 681.667 315.901 596.661 435.5 429.5C581.619 225.273 593 130 738 30.5C922.805 -96.314 1020 229.5 1086.5 330.5C1153 431.5 1171.5 615.5 1509 564C1779 522.8 1639.17 319.833 1535.5 223.5C1478.17 305.833 1323.5 429.9 1163.5 267.5C963.5 64.4998 854.5 139.445 791 198.5C717.994 284.413 644.029 431.755 572.5 484.5C431.222 588.677 290.5 586.5 233.5 586.5C-120.128 559.61 -99.5 117.833 -148 150.5" stroke="white" stroke-opacity="0.6" stroke-width="3"/>
</svg>
